<?xml version="1.0" ?><svg id="Layer_1" style="enable-background:new 0 0 32 32;" version="1.1" viewBox="0 0 32 32" xml:space="preserve" xmlns="http://www.w3.org/2000/svg" xmlns:xlink="http://www.w3.org/1999/xlink"><style type="text/css">
	.st0{fill:#222A30;}
	.st1{fill:#868687;}
	.st2{fill-rule:evenodd;clip-rule:evenodd;fill:#222A30;stroke:#222A30;stroke-width:0.776;}
	.st3{fill-rule:evenodd;clip-rule:evenodd;fill:#222A30;fill-opacity:0;stroke:#222A30;stroke-width:0.776;}
	.st4{fill:none;stroke:#222A30;stroke-width:1.5556;stroke-opacity:0.5;}
	.st5{fill:none;stroke:#222A30;stroke-width:1.5556;}
	.st6{fill:#070707;}
</style><path class="st0" d="M30,25.9L29.9,7.9c0-0.6-0.5-1-1-1L16.1,7c-0.4,0-0.7-0.7-0.7-1l0-0.1  c0-0.6-0.5-1.1-1.1-1.1L7.5,4.9C7,4.9,6.5,5.3,6.5,5.9l0,0.1c0,0.3-0.3,1-0.7,1l0,0c-0.5,0-1,0.5-1,1l0,5.2l-2.2,0c0,0-1,0-0.6,1.1  l2.4,11.7c0,0.6,0.4,1.1,1,1.1l24-0.2C30.1,27,30,25.9,30,25.9z M28.7,14.6l0.1,11.8l-2.4-12.6c-0.2-0.7-1-0.6-1-0.6L6.1,13.3l0-4  l22.6-0.2L28.7,14.6L28.7,14.6z" id="file_x5F_folder"/></svg>